<?xml version="1.0" standalone="no"?><!DOCTYPE svg PUBLIC "-//W3C//DTD SVG 1.1//EN" "http://www.w3.org/Graphics/SVG/1.1/DTD/svg11.dtd"><svg t="1591168087741" class="icon" viewBox="0 0 1025 1024" version="1.1" xmlns="http://www.w3.org/2000/svg" p-id="6085" xmlns:xlink="http://www.w3.org/1999/xlink" width="200.1953125" height="200"><defs><style type="text/css"></style></defs><path d="M476.076904 220.396504c-20.198752 0-36.562297 16.363546-36.562297 36.562297v365.367291c0 20.198752 16.363546 36.562297 36.562297 36.562298s36.562297-16.363546 36.562297-36.562298v-365.622971c0-19.943071-16.363546-36.306617-36.562297-36.306617z" fill="#ffffff" p-id="6086"></path><path d="M476.076904 768.06392m-36.562297 0a36.562297 36.562297 0 1 0 73.124594 0 36.562297 36.562297 0 1 0-73.124594 0Z" fill="#ffffff" p-id="6087"></path><path d="M987.437703 512.639201h-188.436455l-227.811236-439.770287c-23.266916-45.255431-57.78377-71.590512-94.857428-71.590512s-72.357553 26.335081-95.624469 71.590512L20.198752 769.853683c-22.755556 45.255431-25.56804 90.510861-5.88065 125.539076 18.92035 35.795256 57.016729 55.482647 105.084645 55.482647H585.508115v36.562297c0 19.687391 16.107865 36.562297 36.562297 36.562297h401.673908V549.201498c0.25568-20.454432-16.619226-36.562297-36.306617-36.562297z m-813.063671 365.367291c-40.141823 0-79.516604-0.767041-95.624469-30.681648-16.107865-29.914607 11.761298-84.630212 31.448689-122.726592L414.713608 134.999251c19.687391-38.60774 29.914607-60.596255 61.363296-60.596255s43.209988 21.988514 62.897378 60.596255l195.851186 377.63995h-149.061673v365.367291H174.374032z m776.501374 72.868914H658.632709V585.763795H950.875406v365.111611z" fill="#ffffff" p-id="6088"></path><path d="M731.757303 658.121348h145.993508V731.245943h-145.993508zM731.757303 804.114856h145.993508v73.124595h-145.993508z" fill="#ffffff" p-id="6089"></path></svg>