<?xml version="1.0" standalone="no"?><!DOCTYPE svg PUBLIC "-//W3C//DTD SVG 1.1//EN" "http://www.w3.org/Graphics/SVG/1.1/DTD/svg11.dtd"><svg t="1591167912527" class="icon" viewBox="0 0 1024 1024" version="1.1" xmlns="http://www.w3.org/2000/svg" p-id="5626" xmlns:xlink="http://www.w3.org/1999/xlink" width="200" height="200"><defs><style type="text/css"></style></defs><path d="M956.928 229.376z" p-id="5627"></path><path d="M295.424 331.776h388.608a33.28 33.28 0 0 0 0-66.56H295.424a33.28 33.28 0 0 0 0 66.56zM617.984 505.344a33.28 33.28 0 0 0-33.28-33.28H295.424a33.28 33.28 0 0 0 0 66.56h289.28a33.28 33.28 0 0 0 33.28-33.28zM484.864 678.912h-189.44a33.28 33.28 0 1 0 0 66.56h189.44a33.792 33.792 0 0 0 33.28-33.28 33.792 33.792 0 0 0-33.28-33.28z" p-id="5628"></path><path d="M896.512 505.344v-389.12a71.68 71.68 0 0 0-71.68-71.68H204.8a71.68 71.68 0 0 0-71.68 71.68v778.24a71.68 71.68 0 0 0 71.68 71.68h230.912a33.28 33.28 0 0 0 0-66.56H204.8a4.608 4.608 0 0 1-5.12-5.12V116.224a5.12 5.12 0 0 1 5.12-5.12h620.032a5.632 5.632 0 0 1 5.12 5.12v389.12a33.28 33.28 0 1 0 66.56 0z" p-id="5629"></path><path d="M814.592 700.928l-137.216 2.56 94.72-163.84a32.768 32.768 0 0 0-12.288-45.056 33.28 33.28 0 0 0-45.568 11.776l-123.904 215.04a33.28 33.28 0 0 0 0 33.792 30.72 30.72 0 0 0 29.696 16.384l135.68-3.584L665.6 915.456a32.768 32.768 0 0 0 10.752 45.568 32.256 32.256 0 0 0 17.408 5.12 33.28 33.28 0 0 0 28.672-15.872l120.832-199.168a32.256 32.256 0 0 0 0-33.792 29.184 29.184 0 0 0-28.672-16.384z" p-id="5630"></path></svg>