<?xml version="1.0" standalone="no"?><!DOCTYPE svg PUBLIC "-//W3C//DTD SVG 1.1//EN" "http://www.w3.org/Graphics/SVG/1.1/DTD/svg11.dtd"><svg t="1591168011628" class="icon" viewBox="0 0 1024 1024" version="1.1" xmlns="http://www.w3.org/2000/svg" p-id="5925" xmlns:xlink="http://www.w3.org/1999/xlink" width="200" height="200"><defs><style type="text/css"></style></defs><path d="M719 878.8v-0.6l-0.1 0.1H148.3l-0.1-0.1V150.6l0.1-0.1h570.6l0.1 0.1v75.3h50v-75.4c0-27.5-22.5-50-50-50H148.2c-27.5 0-50 22.5-50 50v727.8c0 27.5 22.5 50 50 50H719c27.5 0 50-22.5 50-50v0.5h-50z" fill="#999999" p-id="5926"></path><path d="M192 294.6h371.1v50H192zM192 486.8h278.3v50H192zM192 679.2h278.3v50H192zM771.5 547.3c0 56.6-12.6 126.2-28.1 126.2s-28.1-69.6-28.1-126.2c0-56.6 12.6-74.9 28.1-74.9s28.1 18.2 28.1 74.9z" fill="#999999" p-id="5927"></path><path d="M743.4 717.3m-28.1 0a28.1 28.1 0 1 0 56.2 0 28.1 28.1 0 1 0-56.2 0Z" fill="#999999" p-id="5928"></path><path d="M743.4 357.7l157.7 425.7H585.8l157.6-425.7m0-92.3c-10.7 0-21.4 6-25.8 17.9l-190 513c-6.7 18 6.6 37 25.8 37h380c19.2 0 32.4-19.1 25.8-37l-190-513c-4.4-11.9-15.1-17.9-25.8-17.9z" fill="#999999" p-id="5929"></path></svg>