<?xml version="1.0" standalone="no"?><!DOCTYPE svg PUBLIC "-//W3C//DTD SVG 1.1//EN" "http://www.w3.org/Graphics/SVG/1.1/DTD/svg11.dtd"><svg t="1591167817560" class="icon" viewBox="0 0 1024 1024" version="1.1" xmlns="http://www.w3.org/2000/svg" p-id="5423" xmlns:xlink="http://www.w3.org/1999/xlink" width="200" height="200"><defs><style type="text/css"></style></defs><path d="M433.152 281.088h164.352L504.832 449.536h163.328l-254.464 279.552L512 510.464H368.64l64.512-229.376z m0 0" fill="" p-id="5424"></path><path d="M940.544 500.736c0-281.088-269.824-500.224-564.736-411.136C239.104 130.56 132.096 240.64 94.72 378.88 15.36 669.696 230.4 933.376 509.44 931.84v-78.848c-0.512 0 0.512 0 0 0-94.208 0-182.784-36.352-248.832-102.912-66.56-66.56-102.912-155.136-102.912-249.344 0-94.208 36.352-182.784 102.912-248.832 66.56-66.56 154.112-102.912 248.832-102.912 94.208 0 182.784 36.352 248.832 102.912 66.56 66.56 102.912 155.136 102.912 248.832" fill="" p-id="5425"></path><path d="M952.32 703.488h-19.968c-9.216 0-18.944-7.168-22.016-15.872l-11.776-28.16c-4.096-8.192-2.56-19.968 4.096-26.624l14.336-14.336c6.656-6.656 6.656-17.408 0-23.552l-23.552-23.552c-6.656-6.656-17.408-6.656-23.552 0l-14.336 14.336c-6.656 6.656-18.432 8.192-26.624 4.096l-28.16-11.776c-8.704-2.56-15.872-12.8-15.872-22.016v-19.968c0-9.216-7.68-16.896-16.896-16.896h-33.792c-9.216 0-16.896 7.68-16.896 16.896v19.968c0 9.216-7.168 18.944-15.872 22.016l-28.16 11.776c-8.192 4.608-19.968 2.56-26.624-4.096l-14.336-14.336c-6.656-6.656-17.408-6.656-23.552 0l-23.552 23.552c-6.656 6.656-6.656 17.408 0 23.552l14.336 14.336c6.656 6.656 8.192 18.432 4.096 26.624l-11.776 28.16c-2.56 8.704-12.8 15.872-22.016 15.872h-19.968c-9.216 0-16.896 7.68-16.896 16.896v33.792c0 9.216 7.68 16.896 16.896 16.896h19.968c9.216 0 18.944 7.168 21.504 15.872l11.776 28.16c4.096 8.192 2.56 19.968-4.096 26.624l-14.336 14.336c-6.656 6.656-6.656 17.408 0 23.552l23.552 23.552c6.656 6.656 17.408 6.656 23.552 0l14.336-14.336c6.656-6.656 18.432-8.192 26.624-4.096l28.16 11.776c8.704 2.56 15.872 12.8 15.872 22.016v19.968c0 9.216 7.68 16.896 16.896 16.896h33.792c9.216 0 16.896-7.68 16.896-16.896v-19.968c0-9.216 7.168-18.944 15.872-22.016l28.16-11.776c8.192-4.608 19.968-2.56 26.624 4.096l14.336 14.336c6.656 6.656 17.408 6.656 23.552 0l23.552-23.552c6.656-6.656 6.656-17.408 0-23.552l-14.336-14.336c-6.656-6.656-8.192-18.432-4.096-26.624l11.776-28.16c2.56-8.704 12.8-15.872 22.016-15.872h19.968c9.216 0 16.896-7.68 16.896-16.896v-33.792c0.512-9.728-7.168-16.896-16.384-16.896z m-117.76 33.28c0 46.592-37.376 83.968-83.968 83.968-46.592 0-83.968-37.376-83.968-83.968 0-46.592 37.888-83.968 83.968-83.968s83.968 37.888 83.968 83.968z m0 0" fill="" p-id="5426"></path></svg>